<?xml version="1.0" encoding="utf-8"?>
<!-- Generator: Adobe Illustrator 26.3.1, SVG Export Plug-In . SVG Version: 6.00 Build 0)  -->
<svg version="1.1" id="Layer_1_xA0_Imagen_00000106145401931504820960000017122463299776131260_"
	 xmlns="http://www.w3.org/2000/svg" xmlns:xlink="http://www.w3.org/1999/xlink" x="0px" y="0px" viewBox="0 0 375 53.2"
	 style="enable-background:new 0 0 375 53.2;" xml:space="preserve">
<g>
	<path d="M20.8,0c-1.7,2.3-3.3,4.8-7.4,4.1c1.1-1.6,2-2.9,2.9-4.1C17.8,0,19.3,0,20.8,0z"/>
	<path d="M331.5,44.7c-5.2,4.9-11.3,7.1-18,7.7c-3.6,0.3-7.3,0.4-10.8-0.2c-8.9-1.4-14.4-7.9-15.3-17.5c-0.2-2.5-0.3-4.9-0.4-7.4
		c-0.1-2.4-0.7-4.5-2-6.8c-1.5-2.9-1.4-6.8-1.4-10.3c0-1,2-2.6,3.2-2.9c3.1-0.7,6.5-1.2,9.6-0.9c11.9,1.1,23.8,2.5,35.6,3.9
		c2.5,0.3,5.2,1.1,3.6,4.8c-5.3-1.3-10.5-3-15.9-3.6c-6.1-0.7-12.5-1-18.6-0.4c-9.4,0.9-13.1,6.6-10.9,16.5c7.2,0,14.6,0,22,0
		c0,0.6,0,1.2,0,1.8c-7.4,0-14.7,0-21.9,0c-1.5,10.8,5.8,19.6,16.4,20.8c7.5,0.9,14.4-0.8,20.9-4.3c1-0.5,2-1,3-1.5
		C330.8,44.4,330.9,44.5,331.5,44.7z"/>
	<path d="M32.1,29.3c0,5.7-0.1,11.3,0,17c0.1,2.8-1.3,4.5-3.7,4.6c-8.1,0.2-16.1,0.2-24.2,0c-2.5-0.1-3.7-2-3.6-4.7
		c0.1-11.3,0.1-22.6,0-34c0-2.9,1.4-4.7,4-4.7c7.7-0.2,15.4-0.2,23.1,0.1c3.1,0.1,4.6,2,4.4,5.5C31.9,18.5,32.1,23.9,32.1,29.3z
		 M4.9,29.1c0,5.1,0.1,10.1,0,15.1c-0.1,3.3,1.5,4.9,4.6,5c4.9,0.2,9.7,0.2,14.5,0c2.8-0.1,4.2-1.7,4.2-4.6c0-10.3,0-20.7,0-31
		c0-2.9-1.4-4.5-4.2-4.6c-4.7-0.1-9.5-0.3-14.2,0c-3.3,0.2-5.1,1.9-4.9,5.6C5,19.5,4.9,24.3,4.9,29.1z"/>
	<path d="M166.5,51c4.3-11,8.4-21.7,12.6-32.5c1.3-3.3,2.5-6.7,4-9.9c0.4-0.8,1.8-1.6,2.8-1.6c0.8-0.1,2.2,0.7,2.5,1.5
		c5.6,14,11.1,28.2,16.6,42.2c0,0.1-0.1,0.2-0.1,0.5c-2.2,1-3.6,0.3-4.4-2c-1.2-3.5-2.9-6.8-4.1-10.3c-0.7-1.9-1.6-2.7-3.8-2.6
		c-5.5,0.2-10.9,0-16.6,0c-1.6,4.3-3.2,8.4-4.6,12.6C170.6,51.2,169.5,52.3,166.5,51z M194.3,33.9c-2.8-7.4-5.6-14.5-8.7-22.7
		c-3.2,8.2-5.9,15.3-8.8,22.7C182.8,33.9,188.3,33.9,194.3,33.9z"/>
	<path d="M157.8,20.8c-1.7,0-2.8,0-4.4,0c0-2.5-0.1-4.8,0-7.1c0.2-2.9-1.2-4.5-4-4.6c-4.7-0.2-9.5-0.3-14.2,0
		c-3.2,0.2-5.1,1.8-5.1,5.5c0.2,9.7,0.1,19.5,0,29.2c-0.1,3.4,1.3,5.3,4.6,5.4c4.9,0.2,9.7,0.2,14.6,0.1c2.8-0.1,4.3-1.6,4.1-4.6
		c-0.1-2.2,0-4.4,0-6.9c1.5,0,2.8,0,4.3,0c0,3.1,0.4,6.3-0.2,9.2c-0.3,1.5-2.3,3.7-3.6,3.8c-8.1,0.3-16.1,0.3-24.2,0.1
		c-2.3-0.1-3.5-1.7-3.5-4.3c0.1-11.5,0.1-22.9,0-34.3c0-2.8,1.2-4.6,3.7-4.6c7.9-0.2,15.9-0.2,23.8,0.1c2.7,0.1,4.3,2,4,5.1
		C157.6,15.4,157.8,18,157.8,20.8z"/>
	<path d="M44.4,31.8c0,5.8,0.1,11.2-0.1,16.6c0,1.1-1.2,2.1-1.8,3.2c-0.7-1-1.9-2.1-1.9-3.1c-0.1-12.8,0-25.6-0.1-38.4
		c0-2.4,0.7-3.3,3.2-3.2c4.5,0.2,9-0.4,13.4,0.2c3.7,0.5,7.7,1.7,10.6,3.8c6.6,4.7,6.1,13.9-0.9,18c-2.8,1.7-6.5,2.5-9.8,2.9
		C53.1,32.2,49.1,31.8,44.4,31.8z M44.7,8.7c0,7.3,0,14,0,20.9c4.3,0,8.4,0.1,12.5,0c6-0.2,9.4-3.6,10-9.8c0.5-4.6-3-9.3-8.4-10.1
		C54.3,8.9,49.7,9,44.7,8.7z"/>
	<path d="M355.3,26.7c4.4-6,8.4-11.7,12.6-17.1c0.9-1.2,2.5-1.8,3.8-2.7c0.3,0.3,0.6,0.7,0.9,1c-5,6.9-10,13.8-15.1,20.9
		c5.6,7.4,11.1,14.7,16.8,22.2c-2.6,1.3-3.9,0.3-5.2-1.5c-4.6-6-9.2-11.9-14.1-18.3c-4.5,6.1-8.9,12-13.4,17.8
		c-0.9,1.2-2.6,1.9-3.9,2.8c-0.3-0.3-0.6-0.7-0.9-1c4.6-6.4,9.1-12.9,13.9-19.1c1.7-2.2,1.8-3.7,0-6c-4.5-5.7-8.8-11.6-13.1-17.4
		c0.2-0.3,0.5-0.7,0.7-1.1c1.3,0.8,3.1,1.2,4,2.4C346.6,14.9,350.7,20.6,355.3,26.7z"/>
	<path d="M247.2,28.7c1.2,2.9-0.2,3.1-2.1,3.1c-5.7,0-11.5,0-17.2,0c-1.2,0-2.4,0-4,0c0,6.6,0,13,0,19.6c-1.3,0.2-2.4,0.3-3.8,0.4
		c0-14.7,0-29.1,0-44c4.4,0,8.7,0,13,0c6.9,0,13.7,0,20.6,0c2.3,0,3.3,0.7,2.2,3.3c-10.5,0-21.1,0-32,0c0,5.9,0,11.7,0,17.6
		C231.6,28.7,239.3,28.7,247.2,28.7z"/>
	<path d="M263.2,48c7.7,0,14.8-0.1,21.8,0.1c1.1,0,2.1,1,3.2,1.6c-0.2,0.4-0.3,0.8-0.5,1.2c-9.3,0-18.5,0-28,0c0-14.3,0-28.4,0-42.8
		c1.1-0.1,2.1-0.2,3.5-0.3C263.2,21.1,263.2,34.3,263.2,48z"/>
	<path d="M92.2,51.1c-3.4,1.1-3.8-0.4-3.8-2.6c0.1-11.7,0-23.4,0-35.1c0-1.3,0-2.6,0-4.4c-5.2,0-10,0-14.7,0
		c-0.1-0.4-0.2-0.7-0.3-1.1c0.7-0.3,1.4-0.9,2.1-1c9.7-1,29.8-0.1,31.8,1.7c-5.2,0-9.9,0-15.1,0C92.2,23.1,92.2,37,92.2,51.1z"/>
	<path d="M117.3,51.4c-1.2,0-2.3,0-3.5,0c0-14.8,0-29.4,0-44.2c1.1,0,2.2,0,3.5,0C117.3,21.8,117.3,36.4,117.3,51.4z"/>
</g>
</svg>
