<svg id="visual" viewBox="0 0 1920 300" width="1920" height="300" xmlns="http://www.w3.org/2000/svg" xmlns:xlink="http://www.w3.org/1999/xlink" version="1.1"><path d="M0 111L26.7 121C53.3 131 106.7 151 160 147.8C213.3 144.7 266.7 118.3 320 112.8C373.3 107.3 426.7 122.7 480 129.8C533.3 137 586.7 136 640 145.8C693.3 155.7 746.7 176.3 800 186.7C853.3 197 906.7 197 960 195.7C1013.3 194.3 1066.7 191.7 1120 188.2C1173.3 184.7 1226.7 180.3 1280 177.3C1333.3 174.3 1386.7 172.7 1440 168.8C1493.3 165 1546.7 159 1600 153.7C1653.3 148.3 1706.7 143.7 1760 134.7C1813.3 125.7 1866.7 112.3 1893.3 105.7L1920 99L1920 301L1893.3 301C1866.7 301 1813.3 301 1760 301C1706.7 301 1653.3 301 1600 301C1546.7 301 1493.3 301 1440 301C1386.7 301 1333.3 301 1280 301C1226.7 301 1173.3 301 1120 301C1066.7 301 1013.3 301 960 301C906.7 301 853.3 301 800 301C746.7 301 693.3 301 640 301C586.7 301 533.3 301 480 301C426.7 301 373.3 301 320 301C266.7 301 213.3 301 160 301C106.7 301 53.3 301 26.7 301L0 301Z" fill="#F4980A" stroke-linecap="round" stroke-linejoin="miter"></path></svg>